<svg width="26" height="26" viewBox="0 0 26 26" fill="none" xmlns="http://www.w3.org/2000/svg">
<g clip-path="url(#clip0)">
<path d="M25.6823 24.1509L18.2886 16.7572C19.7208 14.9881 20.5831 12.7402 20.5831 10.2919C20.5831 4.61749 15.966 0.000350952 10.2915 0.000350952C4.61709 0.000350952 0 4.61744 0 10.2919C0 15.9663 4.61714 20.5835 10.2916 20.5835C12.7399 20.5835 14.9878 19.7212 16.7568 18.289L24.1505 25.6827C24.3618 25.8939 24.6391 26.0001 24.9164 26.0001C25.1938 26.0001 25.4711 25.8939 25.6824 25.6827C26.1059 25.2591 26.1059 24.5744 25.6823 24.1509ZM10.2916 18.4168C5.81094 18.4168 2.16666 14.7725 2.16666 10.2919C2.16666 5.81124 5.81094 2.16696 10.2916 2.16696C14.7722 2.16696 18.4165 5.81124 18.4165 10.2919C18.4165 14.7725 14.7722 18.4168 10.2916 18.4168Z" fill="#0066FF"/>
</g>
<defs>
<clipPath id="clip0">
<rect width="26" height="26" fill="white"/>
</clipPath>
</defs>
</svg>
